<?xml version="1.0" encoding="UTF-8" standalone="no"?>
<!DOCTYPE svg PUBLIC "-//W3C//DTD SVG 1.1//EN" "http://www.w3.org/Graphics/SVG/1.1/DTD/svg11.dtd">
<svg width="100%" height="100%" viewBox="0 0 1000 1000" version="1.1" xmlns="http://www.w3.org/2000/svg" xmlns:xlink="http://www.w3.org/1999/xlink" xml:space="preserve" xmlns:serif="http://www.serif.com/" style="fill-rule:evenodd;clip-rule:evenodd;stroke-linejoin:round;stroke-miterlimit:2;">
    <g transform="matrix(0.85297,0,0,0.85297,73.515,73.515)">
        <circle cx="500" cy="500" r="500" style="fill:rgb(73,0,149);"/>
    </g>
    <g transform="matrix(0.797115,0,0,0.797115,101.442,101.442)">
        <circle cx="500" cy="500" r="500" style="fill:rgb(38,38,38);"/>
    </g>
    <g transform="matrix(0.377,0,0,0.377,311.5,311.5)">
        <circle cx="500" cy="500" r="500" style="fill:rgb(73,0,149);"/>
    </g>
    <g transform="matrix(0.0806403,0,0,0.0806403,459.68,459.68)">
        <circle cx="500" cy="500" r="500" style="fill:rgb(38,38,38);"/>
    </g>
    <g transform="matrix(1,0,0,1,164.117,164.117)">
        <g transform="matrix(-0.819611,0.57292,-0.57292,-0.819611,355.334,-49.3212)">
            <text x="185.432px" y="31.279px" style="font-family:'NunitoSans10pt-Regular', 'Nunito Sans 10pt';font-size:144px;fill:rgb(117,0,240);">C</text>
        </g>
        <g transform="matrix(-0.603184,0.797602,-0.797602,-0.603184,229.511,84.2536)">
            <text x="93.797px" y="99.219px" style="font-family:'NunitoSans10pt-Regular', 'Nunito Sans 10pt';font-size:144px;fill:rgb(117,0,240);">h</text>
        </g>
        <g transform="matrix(-0.390494,0.920606,-0.920606,-0.390494,215.554,206.756)">
            <text x="39.333px" y="174.734px" style="font-family:'NunitoSans10pt-Regular', 'Nunito Sans 10pt';font-size:144px;fill:rgb(117,0,240);">r</text>
        </g>
        <g transform="matrix(-0.186072,0.982536,-0.982536,-0.186072,244.09,261.664)">
            <text x="13.664px" y="231.934px" style="font-family:'NunitoSans10pt-Regular', 'Nunito Sans 10pt';font-size:144px;fill:rgb(117,0,240);">o</text>
        </g>
        <g transform="matrix(0.0854292,0.996344,-0.996344,0.0854292,318.596,296.926)">
            <text x="-2.44px" y="322.004px" style="font-family:'NunitoSans10pt-Regular', 'Nunito Sans 10pt';font-size:144px;fill:rgb(117,0,240);">n</text>
        </g>
        <g transform="matrix(0.283885,0.958858,-0.958858,0.283885,403.333,288.244)">
            <text x="8.691px" y="414.148px" style="font-family:'NunitoSans10pt-Regular', 'Nunito Sans 10pt';font-size:144px;fill:rgb(117,0,240);">i</text>
        </g>
        <g transform="matrix(0.457438,0.889241,-0.889241,0.457438,416.487,229.702)">
            <text x="20.006px" y="456.155px" style="font-family:'NunitoSans10pt-Regular', 'Nunito Sans 10pt';font-size:144px;fill:rgb(117,0,240);">c</text>
        </g>
        <g transform="matrix(0.624996,0.780628,-0.780628,0.624996,430.328,152.523)">
            <text x="56.414px" y="524.158px" style="font-family:'NunitoSans10pt-Regular', 'Nunito Sans 10pt';font-size:144px;fill:rgb(117,0,240);">l</text>
        </g>
        <g transform="matrix(0.761152,0.648574,-0.648574,0.761152,387.486,78.3864)">
            <text x="87.317px" y="565.288px" style="font-family:'NunitoSans10pt-Regular', 'Nunito Sans 10pt';font-size:144px;fill:rgb(117,0,240);">e</text>
        </g>
        <g transform="matrix(0.89777,0.440464,-0.440464,0.89777,289.559,-4.81935)">
            <text x="155.162px" y="621.384px" style="font-family:'NunitoSans10pt-Regular', 'Nunito Sans 10pt';font-size:144px;fill:rgb(117,0,240);">s</text>
        </g>
    </g>
    <g transform="matrix(0.940399,0.265149,-0.265149,0.940399,600.733,76.5717)">
        <circle cx="325.352" cy="319.014" r="76.761" style="fill:rgb(99,254,0);"/>
    </g>
    <g transform="matrix(0.940399,0.265149,-0.265149,0.940399,316.637,-211.638)">
        <circle cx="325.352" cy="319.014" r="76.761" style="fill:rgb(254,201,0);"/>
    </g>
    <g transform="matrix(0.940399,0.265149,-0.265149,0.940399,417.612,437.276)">
        <circle cx="325.352" cy="319.014" r="76.761" style="fill:rgb(0,162,254);"/>
    </g>
    <g transform="matrix(0.983277,0,0,0.983277,-23.7201,-12.1048)">
        <path d="M600.912,896.029C578.394,900.127 555.54,902.192 532.627,902.192C322.139,902.192 151.249,731.302 151.249,520.814C151.249,321.134 304.708,157.296 500.123,140.802C496.403,146.189 493.256,152.065 490.794,158.368C309.012,179.121 167.809,333.478 167.809,520.814C167.809,722.163 331.278,885.633 532.627,885.633C552.931,885.633 573.186,883.938 593.182,880.572C595.241,885.972 597.833,891.151 600.912,896.029Z" style="fill:rgb(117,0,240);"/>
    </g>
    <g transform="matrix(-0.274932,-0.273893,0.620434,-0.622787,460.896,755.094)">
        <path d="M83.406,500L706.469,500C693.534,517.706 692.115,537.016 703.758,555.527L80.269,555.527C93.343,537.835 94.905,518.524 83.406,500Z" style="fill:rgb(235,227,5);"/>
    </g>
    <g transform="matrix(-0.174495,0.341151,-0.782654,-0.400319,1212.95,720.813)">
        <path d="M708.078,555.527L78.728,555.527C87.911,541.291 89.715,525.924 82.59,510.441C80.948,506.873 78.873,503.39 76.395,500L708.496,500C698.158,514.791 695.83,530.874 703.29,547.085C704.611,549.955 706.212,552.771 708.078,555.527Z" style="fill:rgb(48,184,115);"/>
    </g>
    <g transform="matrix(-0.280729,0.548847,-0.782654,-0.400319,934.947,416.055)">
        <path d="M314.875,555.527L76.323,555.527C82.899,540.625 84.415,524.396 79.736,508.038C78.955,505.308 78.016,502.627 76.928,500L289.582,500L314.875,555.527ZM648.055,555.527L643.074,555.527L668.5,500L710.33,500C694.308,520.545 673.402,539.372 648.055,555.527ZM542.897,555.527L415.003,555.527L389.711,500L568.322,500L542.897,555.527Z" style="fill:rgb(206,61,26);"/>
    </g>
    <g transform="matrix(-0.414091,-0.412527,0.620434,-0.622787,284.923,1125.43)">
        <path d="M760.206,555.527L402.263,555.527L429.701,500L676.716,500C692.932,507.406 708.351,515.91 722.736,525.511C736.769,534.877 749.268,544.932 760.206,555.527ZM74.801,500L323.813,500L296.376,555.527L74.544,555.527C82.63,537.743 83.057,518.436 74.801,500Z" style="fill:rgb(167,48,184);"/>
    </g>
    <g transform="matrix(-0.550666,0.279615,-0.39801,-0.78383,1001.81,893.232)">
        <path d="M704.489,555.527L384.649,555.527L410.622,500L643.287,500C668.226,516.2 688.772,535.022 704.489,555.527ZM284.431,555.527L76.329,555.527C83.656,537.337 83.227,517.98 75.189,500L310.404,500L284.431,555.527Z" style="fill:rgb(84,150,190);"/>
    </g>
    <g transform="matrix(-0.117734,-0.766839,0.86891,-0.133405,175.988,869.753)">
        <path d="M540.227,500L709.59,500C703.432,518.587 703.932,537.861 710.114,555.527L519.659,555.527L540.227,500ZM439.921,555.527L73.534,555.527C79.675,536.937 79.159,517.663 72.962,500L460.49,500L439.921,555.527Z" style="fill:rgb(87,193,21);"/>
    </g>
    <g transform="matrix(-0.64098,-0.105818,0.143189,-0.867352,715.193,916.607)">
        <path d="M663.881,555.527L77.301,555.527C79.298,550.467 80.743,545.222 81.583,539.825C83.737,525.98 81.697,512.486 76.19,500L704.137,500C694.483,519.874 680.905,538.594 663.881,555.527Z" style="fill:rgb(219,178,16);"/>
    </g>
</svg>
